<?xml version="1.0" encoding="UTF-8"?>
<svg id="Capa_2" data-name="Capa 2" xmlns="http://www.w3.org/2000/svg" viewBox="0 0 1569.35 486.27">
  <defs>
    <style>
      .cls-1 {
        fill: #8c2041;
      }
    </style>
  </defs>
  <g id="Capa_1-2" data-name="Capa 1">
    <g>
      <path class="cls-1" d="m91.89,197.51c-6.63.9-13.26,1.89-19.88,2.96-.18-12-.27-17.56-.27-16.66-13.79,17.74-29.47,26.6-47.02,26.6-16.48,0-24.72-10.48-24.72-31.44,0-15.23,3.94-32.42,11.82-51.6,7.34-17.91,16.12-33.41,26.34-46.49,15.05-18.99,31.53-30.81,49.45-35.47,4.84-1.07,9.04-1.61,12.63-1.61,16.12,0,24.19,9.94,24.19,29.83,0,4.48-.45,9.32-1.34,14.51-14.15,4.12-27.14,8.24-38.96,12.36.89-4.3,1.34-7.97,1.34-11.02,0-6.63-2.33-9.94-6.99-9.94-10.04,0-19.71,10.93-29.02,32.78-8.06,18.81-12.09,34.13-12.09,45.95,0,8.06,2.86,12.09,8.6,12.09s10.93-2.69,16.12-8.06c4.3-4.66,7.34-9.94,9.14-15.85-6.45,1.26-13.08,2.6-19.89,4.03,1.96-6.82,5.45-18.04,10.47-33.65,18.99-4.32,37.61-8.09,55.89-11.33-10.93,37.49-19.52,68.16-25.79,92Z"/>
      <path class="cls-1" d="m282.97,221.7c-58.23-5.73-111.97-10.12-161.24-13.17,5.73-37.8,14.33-94.5,25.8-170.1,47.47,3.22,98.89,7.97,154.25,14.24-1.26,10.57-2.51,23.74-3.76,39.5-33.32-3.76-65.12-6.99-95.4-9.67-1.26,9.85-2.33,18.1-3.22,24.72,24.72,2.33,50.52,4.84,77.39,7.52-1.07,11.65-2.51,24.28-4.3,37.89-27.23-2.86-53.3-5.37-78.2-7.52-1.07,10.75-2.33,19.89-3.76,27.41,30.81,2.69,63.33,5.74,97.55,9.14l-5.11,40.04Z"/>
      <path class="cls-1" d="m461.4,130.06c0,14.51-6.81,25.44-20.42,32.78-10.93,5.91-24.37,8.87-40.31,8.87-17.74,0-34.31-2.69-49.71-8.06-12.19-4.12-22.3-9.76-30.37-16.93-9.85-8.78-14.78-18.72-14.78-29.83,0-2.51.27-5.01.81-7.52,3.76-16.12,15.32-27.77,34.67-34.93,11.29-4.3,28.39-7.61,51.33-9.94,2.69-.18,5.19-.27,7.52-.27,27.59,0,46.67,16.39,57.24,49.18,2.69,8.42,4.03,13.97,4.03,16.66Zm-100.5-8.6c0,16.48,9.14,24.72,27.41,24.72,14.69,0,22.04-9.49,22.04-28.48s-8.6-27.41-25.8-27.41c-8.06,0-14.15,3.32-18.27,9.94-3.59,5.56-5.37,12.63-5.37,21.23Z"/>
      <path class="cls-1" d="m629.63,169.83c-16.84,1.61-33.59,3.49-50.25,5.64,4.3-9.49,16.84-35.11,37.62-76.86h-.54c-27.95,32.07-50.79,59.12-68.53,81.16-10.75,1.61-21.59,3.41-32.52,5.37,2.86-16.48,6.81-41.29,11.82-74.44l-.27.27c-9.5,17.74-23.56,44.43-42.19,80.08-11.65,2.33-23.56,4.84-35.74,7.52,4.66-12,12.9-27.32,24.72-45.95,8.96-14.33,15.23-28.3,18.81-41.92,3.22-12,5.19-27.41,5.91-46.22,25.26,3.59,47.92,6.54,67.99,8.87v9.67c0,6.09-.45,13.71-1.34,22.84l-2.69,22.84.7.13c11.43-13.29,27.59-31.87,48.49-55.76,21.67-2.15,43.08-3.94,64.22-5.38-10.39,22.75-25.8,56.79-46.22,102.12Z"/>
      <path class="cls-1" d="m831.97,221.7c-58.23-5.73-111.97-10.12-161.24-13.17,5.73-37.8,14.33-94.5,25.8-170.1,47.47,3.22,98.89,7.97,154.25,14.24-1.25,10.57-2.51,23.74-3.76,39.5-33.32-3.76-65.12-6.99-95.4-9.67-1.26,9.85-2.33,18.1-3.22,24.72,24.72,2.33,50.52,4.84,77.39,7.52-1.08,11.65-2.51,24.28-4.3,37.89-27.23-2.86-53.3-5.37-78.2-7.52-1.07,10.75-2.33,19.89-3.76,27.41,30.81,2.69,63.33,5.74,97.55,9.14l-5.11,40.04Z"/>
      <path class="cls-1" d="m922.8,181.12c-13.08-1.97-26.33-3.67-39.77-5.11,2.69-39.23,4.03-78.11,4.03-116.63v-1.61c-9.14-1.79-18.18-3.49-27.14-5.11.18-10.57.18-22.57,0-36.01,26.15,5.55,54.46,12.54,84.92,20.96l1.87,33.96c-8.05-2.12-15.92-4.16-23.61-6.1.7,21.7,1.05,40.53,1.05,56.48,0,17.57-.45,37.29-1.34,59.17Z"/>
      <path class="cls-1" d="m1047.76,181.66c-2.69-25.08-5.47-48.19-8.33-69.33-6.09.36-12.19.81-18.27,1.34-8.96,31.35-16.12,55.54-21.5,72.56-20.42,2.15-41.21,4.57-62.34,7.26,21.32-64.67,39.77-128.63,55.36-191.87,27.05-1.07,51.42-1.61,73.09-1.61,15.41,0,25.8.27,31.17.81,12,1.61,21.59,5.2,28.75,10.75,9.85,7.52,14.78,18.1,14.78,31.71,0,25.44-13.8,44.16-41.38,56.16,3.22,17.38,8.06,43.36,14.51,77.93-21.5,1.07-43.45,2.51-65.84,4.3Zm36.01-131.14c0-8.6-5.74-12.9-17.2-12.9-3.94,0-12.72.27-26.34.81-1.79,7.71-4.66,19.35-8.6,34.93,5.01-.18,12-.45,20.96-.81,20.78-1.08,31.17-8.42,31.17-22.04Z"/>
      <path class="cls-1" d="m1183.46,229.22c-14.33-1.97-28.58-4.21-42.73-6.72,1.08-53.56,5.01-107.13,11.82-160.7,16.3.9,32.96,1.52,49.98,1.88-9.14,55.9-15.5,111.08-19.08,165.54Zm-33.59-199.13l60.46-23.65c.89,5.56,2.24,13.97,4.03,25.26-13.62,3.41-33.95,8.6-61,15.59-.72-3.94-1.88-9.67-3.49-17.2Z"/>
      <path class="cls-1" d="m1352.19,188.38l-59.41-4.04c-7.34,12.53-13.7,23.01-19.07,31.42-18.44-1.07-36.25-2.04-53.43-2.93,40.67-68.26,72.11-121.82,94.32-160.7,22.39,1.61,45.95,3.59,70.67,5.91l45.15,168.22-70.97-5.11c-1.61-7.16-4.04-18.09-7.26-32.78Zm-5.88-36.28c-2.14-10.98-5.62-27.36-10.43-49.15-5.74,10.21-14.26,25.6-25.56,46.19l35.99,2.96Z"/>
      <path class="cls-1" d="m1472.88,115.55c1.61,14.51,11.38,21.77,29.29,21.77,12.36,0,18.54-3.67,18.54-11.02,0-5.73-6-10.12-18-13.17-18.81-5.01-32.07-9.76-39.77-14.24-13.62-8.24-20.42-19.71-20.42-34.4,0-16.66,5.6-30.41,16.79-41.25,11.19-10.84,25.3-16.26,42.33-16.26s30.37,3.94,42.19,11.82c12.9,8.24,21.41,19.89,25.53,34.93-14.51,2.69-26.87,5.11-37.08,7.26-3.41-12.54-12-18.81-25.8-18.81-8.96,0-13.44,3.41-13.44,10.21,0,4.66,5.38,8.69,16.12,12.09,20.24,6.09,34.04,11.82,41.38,17.2,12.54,8.96,18.81,21.86,18.81,38.7,0,19.71-8.6,34.67-25.8,44.88-14.15,8.24-31.89,12.36-53.21,12.36-19.35,0-35.03-3.94-47.03-11.82-13.8-9.31-20.96-23.11-21.5-41.38,11.29-2.15,28.3-5.11,51.06-8.87Z"/>
      <path class="cls-1" d="m126.3,454.02c-19.53-1.08-38.7-1.79-57.51-2.15,12.72-70.23,24.36-128.36,34.93-174.4,17.38-.71,35.02-1.16,52.94-1.34-8.24,41.56-18.37,100.87-30.37,177.9Z"/>
      <path class="cls-1" d="m264.96,426.88c-5.91-8.6-13.8-19.71-23.65-33.32-2.69-3.58-6.54-8.96-11.56-16.12-1.97-3.76-4.84-9.49-8.6-17.2l-.81.27c0,.36.09.9.27,1.61v1.61c0,4.3-.9,8.96-2.69,13.97-4.3,11.11-10.48,27.68-18.54,49.71-15.23.54-30.37,1.26-45.42,2.15,4.12-10.21,18.18-43.71,42.19-100.5,15.76-.54,31.44-.81,47.03-.81,8.78,11.65,21.85,29.02,39.23,52.13l.54-.27c.71-5.91,2.06-14.69,4.03-26.33,1.25-4.66,3.76-12.9,7.52-24.72,13.26.54,26.6,1.17,40.04,1.88l-23.65,97.01c-15.23-.54-30.55-.89-45.95-1.08Z"/>
      <path class="cls-1" d="m495.26,481.7c-58.23-5.73-111.97-10.12-161.24-13.17,5.73-37.8,14.33-94.5,25.8-170.1,47.47,3.22,98.89,7.97,154.25,14.24-1.26,10.57-2.51,23.74-3.76,39.5-33.32-3.76-65.12-6.99-95.4-9.67-1.26,9.85-2.33,18.1-3.22,24.72,24.72,2.33,50.52,4.84,77.39,7.52-1.07,11.65-2.51,24.28-4.3,37.89-27.23-2.86-53.3-5.38-78.2-7.52-1.07,10.75-2.33,19.89-3.76,27.41,30.81,2.69,63.33,5.74,97.55,9.14l-5.11,40.04Z"/>
      <path class="cls-1" d="m557.34,375.55c1.61,14.51,11.37,21.77,29.29,21.77,12.36,0,18.54-3.67,18.54-11.02,0-5.73-6-10.12-18-13.17-18.81-5.01-32.07-9.76-39.77-14.24-13.62-8.24-20.42-19.71-20.42-34.4,0-16.66,5.6-30.41,16.8-41.25,11.19-10.84,25.3-16.26,42.32-16.26s30.37,3.94,42.19,11.82c12.9,8.24,21.41,19.89,25.53,34.93-14.51,2.69-26.87,5.11-37.08,7.26-3.41-12.54-12-18.81-25.8-18.81-8.96,0-13.44,3.4-13.44,10.21,0,4.66,5.37,8.69,16.12,12.09,20.24,6.09,34.04,11.82,41.38,17.2,12.54,8.96,18.81,21.86,18.81,38.7,0,19.71-8.6,34.67-25.8,44.88-14.15,8.24-31.89,12.36-53.21,12.36-19.35,0-35.03-3.94-47.03-11.82-13.8-9.31-20.96-23.11-21.5-41.38,11.29-2.15,28.3-5.11,51.06-8.87Z"/>
      <path class="cls-1" d="m731.47,441.12c-13.08-1.97-26.34-3.67-39.77-5.11,2.69-39.23,4.03-78.11,4.03-116.63v-1.61c-9.14-1.79-18.19-3.49-27.14-5.11.18-10.57.18-22.57,0-36.01,26.15,5.55,54.46,12.54,84.92,20.96l1.87,33.96c-8.05-2.12-15.92-4.16-23.61-6.1.7,21.7,1.05,40.53,1.05,56.48,0,17.57-.45,37.29-1.34,59.17Z"/>
      <path class="cls-1" d="m861.77,448.38l-59.41-4.04c-7.34,12.53-13.7,23.01-19.07,31.42-18.44-1.07-36.25-2.04-53.43-2.93,40.67-68.26,72.11-121.82,94.32-160.7,22.39,1.61,45.95,3.59,70.67,5.91l45.15,168.22-70.97-5.11c-1.61-7.16-4.04-18.09-7.26-32.78Zm-5.88-36.28c-2.14-10.98-5.62-27.36-10.43-49.15-5.74,10.21-14.26,25.6-25.56,46.19l35.99,2.96Z"/>
      <path class="cls-1" d="m986.22,325.57c10.57-2.51,26.42-6.09,47.56-10.75,3.76-.71,6.72-1.08,8.87-1.08,10.57,0,15.85,7.26,15.85,21.77,0,9.85-2.6,19.98-7.79,30.37-5.55,11.11-12.45,18.72-20.69,22.84v.27c8.96.9,13.44,7.79,13.44,20.69,0,3.76-.54,8.06-1.61,12.9-3.94,17.56-10.48,30.82-19.62,39.77-6.99,6.81-17.11,11.38-30.37,13.71-10.57,1.79-24.99,4.39-43.27,7.79,12.18-55.89,24.72-108.65,37.63-158.28Zm26.06,93.79c0-5.38-2.06-8.07-6.18-8.07-1.25,0-6.72.99-16.38,2.96-.71,3.23-2.92,12.91-6.63,29.04,3.93-.71,7.85-1.43,11.78-2.15,5-1.08,8.48-2.78,10.45-5.11,4.64-4.84,6.96-10.4,6.96-16.67Zm13.44-62.89c0-4.12-1.89-6.18-5.66-6.18-1.26,0-6.47,1.07-15.63,3.21-1.42,5.92-3.64,14.88-6.66,26.89,10.04-2.15,15.77-3.58,17.2-4.3,4.84-2.33,8.15-7.08,9.94-14.24.54-2.15.81-3.94.81-5.37Z"/>
      <path class="cls-1" d="m1158.74,456.68c-27.59,6.63-59.84,15.15-96.74,25.55,7.34-14.69,11.82-34.57,13.44-59.66.36-6.27.54-27.14.54-62.61,0-25.26.98-46.22,2.96-62.88l56.16,8.05c-1.25,10.03-1.88,22.2-1.88,36.52v40.27c0,30.61-5.03,50.12-15.08,58.53,19.89-4.99,38.53-9.44,55.92-13.36-1.08,2.15-6.18,12.02-15.3,29.58Z"/>
      <path class="cls-1" d="m1342.55,481.7c-58.23-5.73-111.97-10.12-161.24-13.17,5.73-37.8,14.33-94.5,25.8-170.1,47.47,3.22,98.89,7.97,154.25,14.24-1.25,10.57-2.51,23.74-3.76,39.5-33.32-3.76-65.12-6.99-95.4-9.67-1.26,9.85-2.33,18.1-3.23,24.72,24.72,2.33,50.52,4.84,77.39,7.52-1.08,11.65-2.51,24.28-4.3,37.89-27.23-2.86-53.3-5.38-78.2-7.52-1.08,10.75-2.33,19.89-3.76,27.41,30.81,2.69,63.33,5.74,97.55,9.14l-5.11,40.04Z"/>
      <path class="cls-1" d="m1404.63,375.55c1.61,14.51,11.38,21.77,29.29,21.77,12.36,0,18.54-3.67,18.54-11.02,0-5.73-6-10.12-18-13.17-18.81-5.01-32.07-9.76-39.77-14.24-13.62-8.24-20.42-19.71-20.42-34.4,0-16.66,5.6-30.41,16.79-41.25,11.19-10.84,25.3-16.26,42.33-16.26s30.37,3.94,42.19,11.82c12.9,8.24,21.41,19.89,25.53,34.93-14.51,2.69-26.87,5.11-37.08,7.26-3.41-12.54-12-18.81-25.8-18.81-8.96,0-13.44,3.4-13.44,10.21,0,4.66,5.38,8.69,16.12,12.09,20.24,6.09,34.04,11.82,41.38,17.2,12.54,8.96,18.81,21.86,18.81,38.7,0,19.71-8.6,34.67-25.8,44.88-14.15,8.24-31.89,12.36-53.21,12.36-19.35,0-35.03-3.94-47.03-11.82-13.8-9.31-20.96-23.11-21.5-41.38,11.29-2.15,28.3-5.11,51.06-8.87Z"/>
    </g>
  </g>
</svg>